<svg id="Layer_1" data-name="Layer 1" xmlns="http://www.w3.org/2000/svg" viewBox="0 0 300 300"><defs><style>.cls-1{fill:none;stroke-linecap:round;stroke-linejoin:round;stroke-width:4px;}.cls-1,.cls-2{stroke:#000;}.cls-2{stroke-miterlimit:10;}</style></defs><path class="cls-1" d="M92.37,207.86l50.84,49.42s11.08,9,22.23,0,52.45-47.93,52.45-47.93"/><path class="cls-2" d="M81.92,80.23S73.43,92.34,145.6,91.61c0,0,14.43-5.3,26.32,37.27,0,0,3.4,13.68,28.87,9.12,0,0,6.79,7.6,6.79,27.37,0,0,1.21,6.08,13.34,0l-4.85,47.13-30.56,27.36s11.88,39.53,61.13,30.41c0,0-15.29-10.64,22.07-36.49,0,0,20.38-12.16-11.88-21.28,0,0-22.08-6.08,23.77-39.53,0,0,18.68,0,10.19-19.77s-39.06-95.78-39.06-95.78S221.17-3.39,134.56,31.57c0,0-64.53-25.84-95.09,10.65,0,0,1.16,12.16-15.55,54,0,0-42.19,8.36,10.45,70.7,0,0,13.6,8.39-19.52,31.56,0,0-24.63,23.17,29.71,38.37,0,0-29.17,10.59-18.83,19,0,0,55.14,44.19,73.58,12.4q.68-1.17,1.29-2.49C117.58,229.22,81.92,80.23,81.92,80.23Z"/></svg>